HIERARCHY
ROOT Hips
{
	OFFSET 0.00000 0.00000 0.00000
	CHANNELS 6 Xposition Yposition Zposition Yrotation Zrotation Xrotation 
	JOINT Lumbar
	{
		OFFSET 0 0 0
		CHANNELS 3 Zrotation Xrotation Yrotation
		JOINT Neck
		{
			OFFSET 0.00 0.2701 0.00
			CHANNELS 3 Zrotation Xrotation Yrotation
			End Site
			{
				OFFSET 0.00 0.1379 0.00
			}
		}
		JOINT RightShoulder
		{
			OFFSET 0.0119 0.2289 0.1181
			CHANNELS 3 Zrotation Xrotation Yrotation
			JOINT RightElbow
			{
				OFFSET 0.00 -0.1475 0.00
				CHANNELS 2 Zrotation Yrotation
				JOINT RightWrist
				{
					OFFSET 0.00 -0.1605 0.00
					CHANNELS 2 Zrotation Xrotation
					End Site
					{
						OFFSET 0.0040 -0.1068 0.0006
					}
				}
			}
		}
		JOINT LeftShoulder
		{
			OFFSET 0.0119 0.2289 -0.1181
			CHANNELS 3 Zrotation Xrotation Yrotation
			JOINT LeftElbow
			{
				OFFSET 0.00 -0.1475 0.00
				CHANNELS 2 Zrotation Yrotation
				JOINT LeftWrist
				{
					OFFSET 0.00 -0.1605 0.00
					CHANNELS 2 Zrotation Xrotation
					End Site
					{
						OFFSET 0.0040 -0.1068 -0.0006
					}
				}
			}
		}
	}
	JOINT RightHip
	{
		OFFSET 0.0316 -0.0424 0.0458
		CHANNELS 3 Zrotation Xrotation Yrotation
		JOINT RightKnee
		{
			OFFSET 0.00 -0.2438 0.00
			CHANNELS 1 Zrotation
			JOINT RightAnkle
			{
				OFFSET 0.00 -0.2449 0.00
				CHANNELS 3 Zrotation Xrotation Yrotation
				End Site
				{
					OFFSET 0.1237 -0.0542 0.0051
				}
			}
		}
	}
	JOINT LeftHip
	{
		OFFSET 0.0316 -0.0424 -0.0458
		CHANNELS 3 Zrotation Xrotation Yrotation
		JOINT LeftKnee
		{
			OFFSET 0.00 -0.2438 0.00
			CHANNELS 1 Zrotation
			JOINT LeftAnkle
			{
				OFFSET 0.00 -0.2449 0.00
				CHANNELS 3 Zrotation Xrotation Yrotation
				End Site
				{
					OFFSET 0.1237 -0.0542 -0.0051
				}
			}
		}
	}
}
MOTION
Frames: 13
Frame Time: 0.02
0.61193 -0.45365 -0.2536 -52.1546 28.15396 -28.18763 19.80288 5.58818 6.55005 -61.35155 34.56771 -0.83077 18.49557 -59.90324 -2.73615 31.71672 114.51223 -44.31876 -7.01942 -64.40045 -11.40185 90.01166 44.62004 -77.92875 -79.69841 22.97541 123.25524 -3.77828 34.22775 -139.18665 -14.5211 1.70643 0.18128 118.37475 11.79953 3.68575 -73.96515 -14.10251 5.9541 4.30264
0.61227 -0.45361 -0.25323 -51.82476 28.04348 -28.445 19.90782 5.58562 5.95961 -61.82091 34.37484 -0.83077 8.56945 -60.43057 -10.51942 28.35413 113.2536 -43.10681 -6.92141 -64.40045 -11.40184 90.01166 43.99099 -77.9233 -79.69838 22.97508 123.1485 -4.08894 34.44326 -139.30165 -14.51111 1.70594 0.18124 118.45775 11.63365 3.82734 -74.18329 -14.0985 5.95159 4.30079
0.61243 -0.45365 -0.25283 -51.36616 27.94568 -28.78901 19.96045 5.48998 5.21732 -62.26125 34.3607 -0.83077 -2.87377 -59.55288 -18.34505 25.29355 111.5876 -41.63469 -6.84614 -64.40045 -11.40183 90.01164 43.21081 -77.88406 -79.69835 22.97456 122.97212 -4.46105 34.67013 -139.4222 -14.51742 1.70609 0.18123 118.46147 11.40406 3.99362 -74.36181 -14.09782 5.94825 4.29866
0.61266 -0.45367 -0.25245 -50.91148 27.90753 -29.11669 19.95569 5.44544 4.52826 -62.69947 34.22381 -0.83077 -13.46244 -59.23367 -25.86072 22.16571 110.07503 -40.28531 -6.7603 -64.40044 -11.40181 90.01163 42.49036 -77.86286 -79.69831 22.97414 122.76828 -4.86299 34.88159 -139.5428 -14.51969 1.70586 0.1811 118.41406 11.20083 4.15247 -74.56275 -14.09539 5.9455 4.29672
0.61294 -0.45363 -0.25205 -50.6771 27.60169 -29.35136 20.27962 5.36644 3.9072 -63.20228 34.25215 -0.83077 -24.80969 -59.23292 -34.57025 18.71677 108.54421 -38.82634 -6.68575 -64.40044 -11.4018 90.01162 41.81144 -77.83255 -79.69827 22.97362 122.80525 -5.03072 35.13883 -139.65318 -14.50727 1.70602 0.18145 118.72368 11.00807 4.2975 -74.74892 -14.09422 5.94178 4.29448
0.61308 -0.45372 -0.25169 -49.96772 27.84709 -29.79222 19.92227 5.33765 3.11039 -63.56384 33.97886 -0.83077 -34.90036 -58.24409 -40.85762 16.01349 107.05366 -37.57446 -6.59884 -64.40043 -11.40179 90.01161 41.00999 -77.81238 -79.69825 22.97327 122.33748 -5.6865 35.3017 -139.78551 -14.52951 1.7055 0.18078 118.28552 10.78046 4.47285 -74.95379 -14.0915 5.93987 4.29283
0.61286 -0.45412 -0.25146 -47.84971 29.68309 -30.85935 17.57158 5.44965 1.83404 -63.54032 32.87646 -0.83077 -41.31152 -54.84754 -39.91966 15.36678 105.25692 -36.88177 -6.34891 -64.40044 -11.40179 90.01161 39.89126 -77.82777 -79.69826 22.97352 120.37149 -7.80316 35.21252 -139.98205 -14.64275 1.70305 0.17747 115.67567 10.44789 4.76988 -75.23414 -14.07896 5.94357 4.29261
0.6125 -0.45463 -0.25127 -45.28293 32.05716 -32.11543 14.56341 5.61766 0.39091 -63.37601 31.45807 -0.83077 -46.36895 -50.50909 -36.63119 15.45968 103.61455 -36.42933 -6.10336 -64.40044 -11.40181 90.01163 38.65688 -77.85423 -79.6983 22.97395 117.92393 -10.38246 35.02717 -140.19954 -14.7901 1.6999 0.17313 112.34219 10.08618 5.08922 -75.53153 -14.06548 5.94904 4.29302
0.6122 -0.45509 -0.25107 -43.00423 34.14116 -33.2361 11.93496 5.77412 -0.95542 -63.27757 30.15457 -0.83077 -51.93354 -46.62315 -34.77188 15.16074 102.27061 -35.93318 -5.93661 -64.40044 -11.40182 90.01163 37.48482 -77.87589 -79.69832 22.97426 115.77403 -12.66986 34.87623 -140.40413 -14.92293 1.69699 0.16915 109.41902 9.75421 5.369 -75.81162 -14.05546 5.95344 4.29332
0.61193 -0.45553 -0.25086 -40.36143 36.42892 -34.57482 8.95174 5.87263 -2.39408 -63.17025 28.97601 -0.83078 -58.00799 -42.59626 -31.42201 15.07204 99.40281 -35.16373 -5.43965 -64.40045 -11.40183 90.01164 36.26541 -77.89587 -79.69836 22.97468 113.28218 -15.31576 34.75863 -140.62312 -15.05393 1.69437 0.16556 106.13771 9.35269 5.77134 -76.13125 -14.03292 5.95894 4.29292
0.61156 -0.45605 -0.25067 -38.3777 38.40607 -35.49567 6.56613 6.10144 -3.68006 -63.04826 27.46271 -0.83078 -62.67919 -38.64302 -30.5783 14.76113 99.69064 -35.00703 -5.619 -64.40045 -11.40184 90.01165 35.12032 -77.92185 -79.69838 22.97494 111.39767 -17.30937 34.55651 -140.81707 -15.19442 1.69102 0.161 103.44597 9.08709 5.92649 -76.37242 -14.03598 5.96258 4.29408
0.61101 -0.45682 -0.2505 -38.27177 39.52005 -35.28363 5.86149 6.71928 -4.48557 -62.92091 25.07916 -0.83078 -63.79351 -35.26401 -37.56618 13.26988 109.18713 -36.64628 -7.76867 -64.40045 -11.40182 90.01164 34.19942 -77.96644 -79.69836 22.97468 111.22966 -17.52419 34.07204 -140.93679 -15.3727 1.68538 0.15322 102.4291 9.22898 5.36635 -76.40274 -14.11134 5.9606 4.29958
0.61035 -0.45767 -0.25034 -38.8514 40.28512 -34.63443 5.79861 7.45916 -5.13409 -62.78343 22.37415 -0.83078 -63.53651 -31.97823 -47.09121 11.59283 121.75926 -38.87176 -10.57952 -64.40044 -11.40181 90.01163 33.36009 -78.01594 -79.69832 22.97425 111.7004 -17.04843 33.51618 -141.03087 -15.55631 1.67916 0.14464 102.05009 9.50465 4.56141 -76.35474 -14.21193 5.95667 4.30654
